<?xml version="1.0" encoding="UTF-8" standalone="no"?>
<!-- Created with Inkscape (http://www.inkscape.org/) -->

<svg
   width="340mm"
   height="340mm"
   viewBox="0 0 340 340"
   version="1.1"
   id="svg836"
   inkscape:version="1.2.2 (b0a8486541, 2022-12-01)"
   sodipodi:docname="sms-input.svg"
   xmlns:inkscape="http://www.inkscape.org/namespaces/inkscape"
   xmlns:sodipodi="http://sodipodi.sourceforge.net/DTD/sodipodi-0.dtd"
   xmlns="http://www.w3.org/2000/svg"
   xmlns:svg="http://www.w3.org/2000/svg"
   xmlns:rdf="http://www.w3.org/1999/02/22-rdf-syntax-ns#"
   xmlns:cc="http://creativecommons.org/ns#"
   xmlns:dc="http://purl.org/dc/elements/1.1/">
  <title
     id="title1460">Man talking on phone</title>
  <defs
     id="defs830">
    <filter
       inkscape:label="In and Out"
       inkscape:menu="Shadows and Glows"
       inkscape:menu-tooltip="Inner colorized shadow, outer black shadow"
       style="color-interpolation-filters:sRGB;"
       id="filter1703"
       x="-0.074718534"
       y="-0.19412561"
       width="1.188353"
       height="1.4893583">
      <feGaussianBlur
         result="result0"
         in="SourceAlpha"
         stdDeviation="4"
         id="feGaussianBlur1697" />
      <feOffset
         dx="5"
         dy="5"
         result="result4"
         id="feOffset1699" />
      <feComposite
         in="SourceGraphic"
         in2="result4"
         operator="xor"
         result="result3"
         id="feComposite1701" />
    </filter>
  </defs>
  <sodipodi:namedview
     id="base"
     pagecolor="#ffffff"
     bordercolor="#666666"
     borderopacity="1.0"
     inkscape:pageopacity="0.0"
     inkscape:pageshadow="2"
     inkscape:zoom="0.35"
     inkscape:cx="1455.7143"
     inkscape:cy="597.14286"
     inkscape:document-units="mm"
     inkscape:current-layer="layer1"
     showgrid="false"
     inkscape:snap-global="true"
     fit-margin-top="0"
     fit-margin-left="0"
     fit-margin-right="0"
     fit-margin-bottom="0"
     inkscape:window-width="1920"
     inkscape:window-height="1125"
     inkscape:window-x="1920"
     inkscape:window-y="0"
     inkscape:window-maximized="1"
     inkscape:showpageshadow="2"
     inkscape:pagecheckerboard="0"
     inkscape:deskcolor="#d1d1d1" />
  <metadata
     id="metadata833">
    <rdf:RDF>
      <cc:Work
         rdf:about="">
        <dc:format>image/svg+xml</dc:format>
        <dc:type
           rdf:resource="http://purl.org/dc/dcmitype/StillImage" />
        <dc:title>Man talking on phone</dc:title>
        <cc:license
           rdf:resource="http://creativecommons.org/publicdomain/zero/1.0/" />
      </cc:Work>
      <cc:License
         rdf:about="http://creativecommons.org/publicdomain/zero/1.0/">
        <cc:permits
           rdf:resource="http://creativecommons.org/ns#Reproduction" />
        <cc:permits
           rdf:resource="http://creativecommons.org/ns#Distribution" />
        <cc:permits
           rdf:resource="http://creativecommons.org/ns#DerivativeWorks" />
      </cc:License>
    </rdf:RDF>
  </metadata>
  <g
     inkscape:label="Layer 1"
     inkscape:groupmode="layer"
     id="layer1"
     transform="translate(486.07736,-235.99463)">
    <rect
       style="opacity:1;fill:#faef59;fill-opacity:1;stroke:none;stroke-width:2.44826;stroke-linejoin:miter;stroke-miterlimit:4;stroke-dasharray:none;stroke-dashoffset:0;stroke-opacity:1;paint-order:markers fill stroke"
       id="rect1458"
       width="338.3269"
       height="339.72501"
       x="-485.21521"
       y="235.99463" />
    <g
       id="g1454"
       transform="translate(-258.76261,377.97619)">
      <path
         inkscape:connector-curvature="0"
         id="path1445"
         d="m -140.22916,-53.761904 17.3869,-12.473215 27.592261,-2.645833 15.875,24.94643 -17.008927,191.255952 -44.979164,-3.02381 z"
         style="fill:#ffffff;stroke:none;stroke-width:0.264583px;stroke-linecap:butt;stroke-linejoin:miter;stroke-opacity:1" />
      <path
         sodipodi:nodetypes="cccccccccscccccccsccc"
         inkscape:connector-curvature="0"
         id="path1419"
         d="m -113.26212,-33.708687 c -1.48778,-0.0357 -2.96289,0.60502 -3.88088,2.006079 -1.14949,1.75432 -1.16748,2.231006 -0.17881,4.724778 1.2097,3.051265 1.58858,-0.261726 -4.36303,38.13824 -1.46804,9.47194 -6.82683,28.012162 -6.82683,29.188989 11.36357,18.403282 6.50383,60.995861 16.38637,34.854351 2.48195,-5.716555 14.019831,-23.143307 15.427911,-28.434515 l -5.472901,-16.716956 -4.30979,-25.9942777 c -2.37057,-14.2968053 -4.30054,-26.4333803 -4.28864,-26.9699313 0.0119,-0.536554 0.70433,-1.898555 1.5384,-3.026688 1.31918,-1.784302 1.39819,-2.36411 0.60875,-4.455541 -0.79438,-2.104575 -2.72767,-3.268633 -4.64055,-3.314528 z m -3.19051,131.766634 c -0.006,-0.0036 -0.38868,-13.610443 -0.39238,-8.31496 -1.66197,-7.868896 -6.44542,16.133203 -3.80937,25.765063 l 3.18894,3.2494 c 1.75403,1.78724 3.42617,3.10301 3.71605,2.92386 0.28988,-0.17915 0.95094,-1.83859 1.46865,-3.68763 6.63088,-12.42688 14.107331,-23.400599 -4.17185,-25.983352 z"
         style="opacity:1;fill:#000000;fill-opacity:1;stroke:none;stroke-width:3;stroke-linejoin:miter;stroke-miterlimit:4;stroke-dasharray:none;stroke-dashoffset:0;stroke-opacity:1;paint-order:markers fill stroke" />
      <path
         sodipodi:nodetypes="cccscscscccccccsssccsssccccsccsssccscccccccscccccsccccccscccc"
         inkscape:connector-curvature="0"
         id="path1424"
         d="m -179.55572,197.47885 c -0.009,-0.10392 -0.47731,-5.80191 -1.03987,-12.66219 l -1.02285,-12.47322 -4.94067,-10.20535 c -7.15733,-14.78402 -13.15646,-32.51068 -18.292,-54.05059 -5.35718,-22.469409 -6.04806,-42.466149 -2.22718,-64.462427 2.6443,-15.222924 17.39836,-78.728675 18.56081,-79.891127 0.16515,-0.165153 10.45657,-3.471915 22.86979,-7.348363 l 22.56954,-7.048084 4.85706,-4.44192 c 2.67142,-2.443054 4.99959,-4.299435 5.17372,-4.125291 0.17415,0.174146 -0.3074,2.3431 -1.07011,4.819896 -0.76269,2.476796 -1.61867,6.726618 -1.90214,9.444048 -1.02122,9.789107 2.68007,40.364248 7.54644,62.338981 1.4732,6.652379 2.85211,12.945684 3.06422,13.985118 1.78655,8.754285 9.92299,34.773809 10.87398,34.773809 1.20602,0 9.37834,-21.77111 12.91132,-34.395833 4.193437,-14.984828 10.836357,-45.800189 15.514296,-71.968222 0.759407,-4.248078 1.738048,-7.403808 2.513647,-8.105732 1.153531,-1.043943 1.682935,-0.817761 5.769213,2.464845 2.474516,1.987844 11.983056,7.916412 21.130077,13.174596 9.147025,5.258184 17.196218,10.000774 17.887098,10.53909 1.006679,0.784378 1.494994,3.831222 2.458831,15.3418534 0.661482,7.8997016 1.201799,15.8381037 1.200703,17.6408956 l -0.0021,3.277801 c 6.941103,24.858699 0.0018,29.184659 2.267855,38.882933 l -0.0068,2.605132 c -0.01664,6.714445 -1.64301,19.900196 -2.994001,24.274198 -0.92042,2.979981 -2.584239,6.120614 -4.311645,8.138697 l -2.812852,3.286194 -8.551161,-0.421143 c -12.1301,-0.597405 -11.764621,-2.22999 -5.039593,22.511715 5.983243,22.01267 7.745783,33.33674 9.754423,62.67098 l 0.512628,7.48644 -5.290857,-0.49173 c -6.323552,-0.58774 -6.20644,-0.74358 -6.20644,8.25924 v 6.36376 h -28.81704 -28.817062 l 0.32488,-4.49136 c 0.17867,-2.47023 0.0314,-4.30996 -0.32737,-4.08824 -0.35875,0.22173 -1.4659,2.24285 -2.46028,4.49136 l -1.80803,4.08824 h -29.9017 c -16.44594,0 -29.9094,-0.085 -29.91876,-0.189 z m 68.68294,-71.36447 c 2.5463,-0.35182 3.199,-0.7261 2.93013,-1.68024 -0.19026,-0.67519 -1.25354,-4.62939 -2.36286,-8.78713 -3.15341,-11.81917 -5.79273,-20.225162 -6.21707,-19.800816 -0.65077,0.650778 -2.4722,10.874336 -4.1318,19.661856 -0.86376,4.57351 -2.48308,9.26936 -2.72432,10.26539 -0.43723,1.80504 -0.42291,1.80927 4.39562,1.30225 2.65886,-0.27977 6.30849,-0.71236 8.1103,-0.96131 z m -61.93493,-45.067829 3.15627,-10.409986 -2.39792,-11.134656 c -2.77651,-12.89264 -3.38066,-14.500791 -4.03265,-10.734548 -1.68492,9.733084 -2.50222,23.809121 -1.93,33.239779 0.34059,5.612947 0.64669,10.358437 0.68021,10.545534 0.25033,1.396683 1.83047,-2.622094 4.52409,-11.506123 z"
         style="opacity:1;fill:#84797c;fill-opacity:1;stroke:none;stroke-width:3;stroke-linejoin:miter;stroke-miterlimit:4;stroke-dasharray:none;stroke-dashoffset:0;stroke-opacity:1;paint-order:markers fill stroke" />
      <path
         inkscape:connector-curvature="0"
         id="path1443"
         d="m -56.318451,36.196428 15.875,-25.702381 17.76488,7.181548 -22.300595,32.505951 z"
         style="fill:#666666;stroke:none;stroke-width:0.264583px;stroke-linecap:butt;stroke-linejoin:miter;stroke-opacity:1" />
      <path
         inkscape:connector-curvature="0"
         id="path1434"
         d="m -130.01146,-61.803095 -2.25259,4.814176 c -2.08695,4.460071 -2.27486,5.579467 -2.54921,15.211991 -0.16287,5.718667 0.11327,14.393294 0.61341,19.276859 1.07556,10.502175 4.63545,32.1164554 6.94685,42.178821 0.90234,3.928139 1.75919,7.023756 1.90429,6.878651 0.29077,-0.290785 1.84645,-9.920367 5.55469,-34.3808469 2.17781,-14.3654861 2.33592,-16.4551671 1.44798,-19.1456021 -0.86492,-2.620732 -0.83539,-3.28767 0.22323,-5.041553 0.67098,-1.111618 1.86685,-2.122286 2.65721,-2.245857 1.12072,-0.175218 0.0351,-1.589392 -4.93149,-6.425449 -7.64019,-7.439408 -9.46036,-10.619943 -9.54929,-16.684767 z m 43.159622,17.305404 c -0.392298,-0.0398 -1.580171,1.311214 -2.863903,3.303156 -3.246067,5.036809 -4.683204,6.320774 -8.422746,7.522022 -2.762093,0.887264 -4.987233,0.79161 -9.949263,-0.426847 -2.09558,-0.51458 -2.16651,-0.465844 -1.00666,0.694015 2.19697,2.196981 2.48788,5.695982 0.67747,8.144722 l -1.60764,2.174028 4.17442,24.9307773 c 2.29592,13.7118727 4.20549,25.1965007 4.24314,25.5214377 0.0377,0.324935 0.88279,-2.470575 1.878441,-6.212538 3.92766,-14.7611779 13.622046,-63.662424 12.994057,-65.546387 -0.02156,-0.06464 -0.06128,-0.0987 -0.117316,-0.104386 z M -120.62497,117.9699 c -0.0672,-10e-4 -0.11481,0.0192 -0.14005,0.0631 -0.20185,0.3507 -0.60145,1.93772 -0.88831,3.52642 -0.28689,1.58866 -0.72567,3.42077 -0.97512,4.07106 -0.46257,1.20544 1.88291,1.1566 11.23857,-0.23204 l 2.759,-0.40928 -0.75033,-2.78122 c -1.07601,-3.98765 -2.01624,-4.63164 -2.58795,-1.773 -0.2668,1.33392 -0.81301,2.62805 -1.21388,2.87578 -0.40084,0.24775 -2.18826,-0.98213 -3.97187,-2.73264 -1.56062,-1.53168 -2.9995,-2.59993 -3.47006,-2.60813 z"
         style="opacity:1;fill:#ffffff;fill-opacity:1;stroke:none;stroke-width:3;stroke-linejoin:miter;stroke-miterlimit:4;stroke-dasharray:none;stroke-dashoffset:0;stroke-opacity:1;paint-order:markers fill stroke" />
      <path
         sodipodi:nodetypes="ccccsscsccsccscccccccscssssccccssscc"
         inkscape:connector-curvature="0"
         id="path1417"
         d="m -99.69571,-103.56238 c -10.1408,0.0292 -14.79045,-1.45398 -18.11327,8.760341 l 0.82838,-1.595326 0.59102,3.401343 c -0.94491,-4.651931 -4.03563,-6.047619 -5.3256,-6.047619 -1.33149,0 -5.56089,9.008923 -6.88449,13.818204 -1.29284,4.697513 -1.28797,4.790194 0.43717,8.952426 1.7187,4.14665 1.72582,4.284517 0.508,9.826789 -1.35448,6.164222 -1.59822,12.905816 -0.52764,14.597559 0.63609,1.005179 1.10639,-0.547685 1.79938,-5.940208 0.0763,-0.593381 1.12435,0.426863 2.32905,2.267564 3.50565,5.356389 15.71683,19.618677 17.81392,20.805963 2.36842,1.340913 7.559913,0.851537 10.730071,-1.011307 1.24378,-0.730858 3.403732,-3.199733 4.80023,-5.486487 1.396497,-2.286756 4.131812,-5.482928 6.078193,-7.102409 4.873731,-4.055154 7.697338,-8.760507 8.339032,-13.896308 0.28948,-2.31699 1.136888,-5.258662 1.883066,-6.537068 2.155957,-3.693684 3.18984,-27.967139 1.578281,-30.506814 -1.723205,-2.715593 -16.777342,-4.335713 -26.864793,-4.306643 z m 59.384699,126.031658 c -0.168873,-0.0037 -0.32693,0.02089 -0.471805,0.07648 -1.52717,0.586029 -1.522553,4.540954 0.01705,14.224971 0.654291,4.115456 1.060064,7.871336 0.901756,8.34626 -0.158308,0.474927 -1.629172,-0.807963 -3.268536,-2.850472 -5.219054,-6.502511 -10.50582,-11.532021 -12.701031,-12.082984 -2.891444,-0.725707 -5.639411,1.367674 -8.044471,6.127792 -3.635545,7.195505 -2.023549,16.524774 4.648811,26.907403 1.69781,2.641901 3.20689,4.934653 3.3538,5.095295 0.14691,0.160645 2.063247,0.710965 4.258656,1.222664 l 3.992005,0.930177 2.418455,-5.157309 c 1.810803,-3.861424 3.156265,-5.623449 5.354196,-7.010942 5.215877,-3.292639 6.968051,-6.047528 6.968051,-10.954369 0,-5.329926 -1.307137,-16.315759 -2.316139,-19.465478 -0.865648,-2.702224 -3.478361,-5.37369 -5.1108,-5.409491 z"
         style="opacity:1;fill:#8a534c;fill-opacity:1;stroke:none;stroke-width:3;stroke-linejoin:miter;stroke-miterlimit:4;stroke-dasharray:none;stroke-dashoffset:0;stroke-opacity:1;paint-order:markers fill stroke" />
      <path
         inkscape:connector-curvature="0"
         id="path1415"
         d="m -118.87939,-90.488042 c -1.09564,-4.612373 -2.23371,-6.142725 -4.18806,-5.631651 -1.33099,0.34806 -1.41888,0.09398 -0.96229,-2.782263 0.73747,-4.645834 3.89538,-11.067224 7.08562,-14.408074 5.23243,-5.47949 16.53323,-8.88169 24.106613,-7.25749 5.076799,1.08878 10.926445,4.60604 14.098508,8.47712 2.842393,3.46877 7.299907,12.206816 7.300913,14.311923 0,1.139947 -0.213625,1.158111 -2.166726,0.183775 -6.97066,-3.477418 -26.543078,-5.968348 -33.011008,-4.201238 -4.11226,1.12352 -7.69064,5.020149 -9.69594,10.558252 l -1.65801,4.578977 z"
         style="opacity:1;fill:#060000;fill-opacity:1;stroke:none;stroke-width:3;stroke-linejoin:miter;stroke-miterlimit:4;stroke-dasharray:none;stroke-dashoffset:0;stroke-opacity:1;paint-order:markers fill stroke" />
    </g>
    <path
       style="opacity:1;fill:#ffffff;fill-opacity:1;stroke:none;stroke-width:3;stroke-linejoin:miter;stroke-miterlimit:4;stroke-dasharray:none;stroke-dashoffset:0;stroke-opacity:1;paint-order:markers fill stroke"
       d="m -276.54734,389.08074 c 0,-0.64423 2.43985,-6.52523 5.42188,-13.06885 4.95998,-10.88396 5.20077,-12.02706 2.82653,-13.41793 -8.32858,-4.87902 -20.40396,-14.76856 -24.78149,-20.29565 -16.97553,-21.43334 -16.37492,-50.67533 1.4412,-70.16901 27.29405,-29.86404 82.21596,-29.82652 113.59741,0.0776 5.20363,4.95864 11.21702,12.65793 13.9079,17.80715 4.34082,8.30646 4.74126,10.28261 4.74878,23.43451 0.01,16.84399 -2.7252,24.38062 -12.82175,35.33405 -13.64593,14.80405 -31.42294,22.22349 -54.46328,22.73086 l -14.37877,0.31665 -17.7492,9.21096 c -9.76207,5.06606 -17.74921,8.68389 -17.74921,8.03966 z"
       id="path1456"
       inkscape:connector-curvature="0" />
    <text
       xml:space="preserve"
       style="font-style:normal;font-weight:normal;font-size:67.374px;line-height:1.25;font-family:sans-serif;fill:#000000;fill-opacity:1;stroke:none;stroke-width:1.68435;filter:url(#filter1703)"
       x="-168.50853"
       y="398.10208"
       id="text1633"
       transform="matrix(0.81114004,0.32264261,-0.32264261,0.81114004,-29.289619,39.834839)"><tspan
         sodipodi:role="line"
         id="tspan1631"
         style="stroke-width:1.68435"
         x="-168.50853"
         y="398.10208">SMS</tspan></text>
  </g>
</svg>
